#define 1549572776343_width 192
#define 1549572776343_height 192
static char 1549572776343_bits[] = {
  0x00, 0x00, 0x00, 0x00, 0x00, 0x00, 0x00, 0x00, 0x00, 0x00, 0x80, 0xD6, 
  0xB7, 0x04, 0x00, 0x00, 0x00, 0x00, 0x00, 0x00, 0x00, 0x00, 0x00, 0x00, 
  0x00, 0x00, 0x00, 0x00, 0x00, 0x00, 0x00, 0x00, 0x00, 0x00, 0xFE, 0xFF, 
  0xFF, 0x7F, 0x00, 0x00, 0x00, 0x00, 0x00, 0x00, 0x00, 0x00, 0x00, 0x00, 
  0x00, 0x00, 0x00, 0x00, 0x00, 0x00, 0x00, 0x00, 0x00, 0xF8, 0xFF, 0xFF, 
  0xFF, 0xFF, 0x1F, 0x00, 0x00, 0x00, 0x00, 0x00, 0x00, 0x00, 0x00, 0x00, 
  0x00, 0x00, 0x00, 0x00, 0x00, 0x00, 0x00, 0x00, 0x80, 0xFF, 0xFF, 0xFF, 
  0xFF, 0xFF, 0xFF, 0x01, 0x00, 0x00, 0x00, 0x00, 0x00, 0x00, 0x00, 0x00, 
  0x00, 0x00, 0x00, 0x00, 0x00, 0x00, 0x00, 0x00, 0xF8, 0xFF, 0xFF, 0xFF, 
  0xFF, 0xFF, 0xFF, 0x0F, 0x00, 0x00, 0x00, 0x00, 0x00, 0x00, 0x00, 0x00, 
  0x00, 0x00, 0x00, 0x00, 0x00, 0x00, 0x00, 0x00, 0xFE, 0xFF, 0xFF, 0xFF, 
  0xFF, 0xFF, 0xFF, 0xFF, 0x00, 0x00, 0x00, 0x00, 0x00, 0x00, 0x00, 0x00, 
  0x00, 0x00, 0x00, 0x00, 0x00, 0x00, 0x00, 0xC0, 0xFF, 0xFF, 0xFF, 0x5B, 
  0xE5, 0xFF, 0xFF, 0xFF, 0x03, 0x00, 0x00, 0x00, 0x00, 0x00, 0x00, 0x00, 
  0x00, 0x00, 0x00, 0x00, 0x00, 0x00, 0x00, 0xF8, 0xFF, 0xFF, 0x0B, 0x00, 
  0x00, 0xD0, 0xFF, 0xFF, 0x1F, 0x00, 0x00, 0x00, 0x00, 0x00, 0x00, 0x00, 
  0x00, 0x00, 0x00, 0x00, 0x00, 0x00, 0x00, 0xFF, 0xFF, 0x1F, 0x00, 0x00, 
  0x00, 0x00, 0xF8, 0xFF, 0x7F, 0x00, 0x00, 0x00, 0x00, 0x00, 0x00, 0x00, 
  0x00, 0x00, 0x00, 0x00, 0x00, 0x00, 0x80, 0xFF, 0xFF, 0x01, 0x00, 0xD4, 
  0x25, 0x02, 0x80, 0xFF, 0xFF, 0x03, 0x00, 0x00, 0x00, 0x00, 0x00, 0x00, 
  0x00, 0x00, 0x00, 0x00, 0x00, 0x00, 0xE0, 0xFF, 0x1F, 0x00, 0xFC, 0xFF, 
  0xE7, 0x5F, 0x00, 0xFC, 0xFF, 0x07, 0x00, 0x00, 0x00, 0x00, 0x00, 0x00, 
  0x00, 0x00, 0x00, 0x00, 0x00, 0x00, 0xF8, 0xFF, 0x07, 0xE0, 0xFF, 0xFF, 
  0xE7, 0xFF, 0x0B, 0xC0, 0xFF, 0x1F, 0x00, 0x00, 0x00, 0x00, 0x00, 0x00, 
  0x00, 0x00, 0x00, 0x00, 0x00, 0x00, 0xFE, 0xFF, 0x00, 0xFE, 0xFF, 0xFF, 
  0xF3, 0xFF, 0x7F, 0x00, 0xFF, 0x7F, 0x00, 0x00, 0x00, 0x00, 0x00, 0x00, 
  0x00, 0x00, 0x00, 0x00, 0x00, 0x80, 0xFF, 0x1F, 0xE0, 0xFF, 0xFF, 0xFF, 
  0xF7, 0xFF, 0xFF, 0x07, 0xF8, 0xFF, 0x01, 0x00, 0x00, 0x00, 0x00, 0x00, 
  0x00, 0x00, 0x00, 0x00, 0x00, 0xE0, 0xFF, 0x07, 0xF8, 0xFF, 0xFF, 0xFF, 
  0xF7, 0xFF, 0xFF, 0x3F, 0xE0, 0xFF, 0x07, 0x00, 0x00, 0x00, 0x00, 0x00, 
  0x00, 0x00, 0x00, 0x00, 0x00, 0xF0, 0xFF, 0x01, 0xFF, 0xFF, 0xFF, 0xFF, 
  0xF3, 0xFF, 0xFF, 0xFB, 0x80, 0xFF, 0x0F, 0x00, 0x00, 0x00, 0x00, 0x00, 
  0x00, 0x00, 0x00, 0x00, 0x00, 0xFC, 0x7F, 0xE0, 0xFF, 0xFF, 0x3F, 0xFE, 
  0xF7, 0xFF, 0xFF, 0xE4, 0x07, 0xFE, 0x3F, 0x00, 0x00, 0x00, 0x00, 0x00, 
  0x00, 0x00, 0x00, 0x00, 0x00, 0xFE, 0x1F, 0xF8, 0xFF, 0xFB, 0xFF, 0xFD, 
  0xF3, 0xFF, 0x7F, 0xDF, 0x1F, 0xF8, 0x7F, 0x00, 0x00, 0x00, 0x00, 0x00, 
  0x00, 0x00, 0x00, 0x00, 0x00, 0xFF, 0x07, 0xFE, 0xFF, 0xCD, 0xDF, 0xFF, 
  0xF3, 0xFF, 0xBF, 0xFF, 0x7F, 0xF0, 0xFF, 0x01, 0x00, 0x00, 0x00, 0x00, 
  0x00, 0x00, 0x00, 0x00, 0xC0, 0xFF, 0x03, 0xFF, 0x7F, 0xFE, 0xE7, 0xFF, 
  0xF3, 0xFF, 0xFF, 0xB1, 0xFF, 0x81, 0xFF, 0x03, 0x00, 0x00, 0x00, 0x00, 
  0x00, 0x00, 0x00, 0x00, 0xE0, 0xFF, 0xE0, 0xFF, 0xBF, 0xFF, 0xF3, 0xFF, 
  0xF3, 0xFF, 0xFF, 0xB5, 0xFF, 0x07, 0xFF, 0x07, 0x00, 0x00, 0x00, 0x00, 
  0x00, 0x00, 0x00, 0x00, 0xF0, 0x3F, 0xF0, 0xFF, 0xEF, 0xAF, 0xFC, 0xFF, 
  0xFB, 0xFF, 0x9F, 0xDE, 0xFF, 0x0F, 0xFC, 0x0F, 0x00, 0x00, 0x00, 0x00, 
  0x00, 0x00, 0x00, 0x00, 0xFC, 0x1F, 0xFC, 0xFF, 0xE7, 0x37, 0xFD, 0xFF, 
  0xF3, 0xFF, 0x3F, 0xDA, 0xFF, 0x3F, 0xF8, 0x3F, 0x00, 0x00, 0x00, 0x00, 
  0x00, 0x00, 0x00, 0x00, 0xFE, 0x0F, 0xF8, 0xFF, 0x33, 0xC9, 0xFD, 0xFF, 
  0xFB, 0xFF, 0xFF, 0xDD, 0xFF, 0xFF, 0xE0, 0x7F, 0x00, 0x00, 0x00, 0x00, 
  0x00, 0x00, 0x00, 0x00, 0xFF, 0x83, 0xF3, 0xFF, 0x5E, 0xF3, 0xFF, 0xFF, 
  0xF9, 0xFF, 0xFF, 0xF5, 0xFF, 0xFF, 0xC1, 0xFF, 0x00, 0x00, 0x00, 0x00, 
  0x00, 0x00, 0x00, 0x80, 0xFF, 0xC1, 0xF3, 0xFF, 0x52, 0xFE, 0xFD, 0xFF, 
  0xFB, 0xFF, 0xFF, 0xF6, 0xFF, 0xFF, 0x83, 0xFF, 0x01, 0x00, 0x00, 0x00, 
  0x00, 0x00, 0x00, 0xC0, 0xFF, 0xF0, 0xE7, 0xFF, 0xFC, 0xF7, 0xFD, 0xFF, 
  0xF9, 0xFF, 0xFF, 0xFF, 0xFF, 0xFF, 0x0F, 0xFF, 0x03, 0x00, 0x00, 0x00, 
  0x00, 0x00, 0x00, 0xE0, 0x3F, 0xF8, 0xE7, 0xFF, 0xFF, 0xE7, 0xFE, 0xFF, 
  0xF9, 0xFF, 0xFF, 0xF6, 0xFF, 0xFF, 0x1F, 0xFC, 0x07, 0x00, 0x00, 0x00, 
  0x00, 0x00, 0x00, 0xF0, 0x1F, 0xFC, 0xCF, 0xFF, 0x7D, 0x9F, 0xFF, 0xFF, 
  0xF9, 0xFF, 0xFF, 0xF9, 0xFF, 0xFF, 0x7F, 0xF8, 0x0F, 0x00, 0x00, 0x00, 
  0x00, 0x00, 0x00, 0xF8, 0x0F, 0xFF, 0xCF, 0xFF, 0x31, 0xFF, 0xFF, 0xFF, 
  0xF9, 0xFF, 0xFF, 0xFB, 0xFF, 0xFF, 0x7F, 0xF0, 0x1F, 0x00, 0x00, 0x00, 
  0x00, 0x00, 0x00, 0xFC, 0x87, 0xFF, 0x9F, 0xFF, 0xEF, 0xFF, 0xFF, 0xFF, 
  0xF9, 0xFF, 0xFF, 0xF9, 0xFF, 0xFF, 0x3F, 0xE0, 0x3F, 0x00, 0x00, 0x00, 
  0x00, 0x00, 0x00, 0xFE, 0xC3, 0xFF, 0x3F, 0xFF, 0xFF, 0xFF, 0xFF, 0x97, 
  0xD0, 0xFF, 0xFF, 0xFA, 0xFF, 0xFF, 0x1F, 0xC0, 0x7F, 0x00, 0x00, 0x00, 
  0x00, 0x00, 0x00, 0xFF, 0xE1, 0xFF, 0x3F, 0xFF, 0xFF, 0xFF, 0x1F, 0x00, 
  0x00, 0xE8, 0x7F, 0xF7, 0xFF, 0xFF, 0x0F, 0x80, 0xFF, 0x00, 0x00, 0x00, 
  0x00, 0x00, 0x00, 0xFF, 0xF0, 0xFF, 0x7F, 0xFE, 0xFF, 0x7F, 0x00, 0x00, 
  0x00, 0x80, 0xFE, 0xF9, 0xFF, 0xFF, 0x07, 0x00, 0xFF, 0x01, 0x00, 0x00, 
  0x00, 0x00, 0xC0, 0x7F, 0xF8, 0xFF, 0x7F, 0xFE, 0xFF, 0x0F, 0x00, 0x54, 
  0x27, 0x00, 0xF0, 0xFD, 0xFF, 0xFF, 0x07, 0x00, 0xFE, 0x03, 0x00, 0x00, 
  0x00, 0x00, 0xE0, 0x3F, 0xFC, 0xFF, 0xFF, 0xFC, 0xFF, 0x01, 0xF0, 0xFF, 
  0xFF, 0x0F, 0x80, 0xFF, 0xFF, 0xFF, 0x01, 0x00, 0xFC, 0x07, 0x00, 0x00, 
  0x00, 0x00, 0xE0, 0x1F, 0xFE, 0xFF, 0xFF, 0xFC, 0x3F, 0x80, 0xFF, 0xFF, 
  0xFF, 0xFF, 0x01, 0xFE, 0xFF, 0xFF, 0x00, 0x00, 0xF8, 0x07, 0x00, 0x00, 
  0x00, 0x00, 0xF0, 0x0F, 0xFF, 0xFF, 0xFF, 0xF9, 0x1F, 0xF0, 0xFF, 0x1F, 
  0xF8, 0xFF, 0x0F, 0xF8, 0xFF, 0x7F, 0x00, 0x00, 0xF0, 0x0F, 0x00, 0x00, 
  0x00, 0x00, 0xF8, 0x87, 0xFF, 0xFF, 0xFF, 0xF3, 0x07, 0xFE, 0xFF, 0x1F, 
  0xF8, 0xFF, 0x7F, 0xC0, 0xFF, 0x7F, 0x00, 0x00, 0xF0, 0x1F, 0x00, 0x00, 
  0x00, 0x00, 0xFC, 0xC7, 0xFF, 0xFF, 0xFF, 0xF3, 0x81, 0xFF, 0xFF, 0x1F, 
  0xF8, 0xFF, 0xFF, 0x81, 0xFF, 0x3F, 0x00, 0x00, 0xC0, 0x3F, 0x00, 0x00, 
  0x00, 0x00, 0xFC, 0xE3, 0xFF, 0xFF, 0xFF, 0x67, 0xE0, 0xFF, 0xFF, 0x1F, 
  0xF8, 0xFF, 0xFF, 0x07, 0xFE, 0x1F, 0x00, 0x00, 0xC0, 0x3F, 0x00, 0x00, 
  0x00, 0x00, 0xFE, 0xE1, 0xFF, 0xFF, 0xFF, 0x07, 0xF8, 0xFF, 0xFF, 0x1F, 
  0xF8, 0xFF, 0xFF, 0x1F, 0xF8, 0x0F, 0x00, 0x00, 0x80, 0x7F, 0x00, 0x00, 
  0x00, 0x00, 0xFF, 0xF0, 0xFF, 0xFF, 0xFF, 0x0F, 0xFE, 0xFF, 0xFF, 0x1F, 
  0xF8, 0xFF, 0xFF, 0x7F, 0xF0, 0x07, 0x00, 0x00, 0x00, 0xFF, 0x00, 0x00, 
  0x00, 0x00, 0x7F, 0xF8, 0x74, 0xFD, 0xFF, 0x83, 0xFF, 0xFF, 0xFF, 0x1F, 
  0xF8, 0xFF, 0xFF, 0xFF, 0xC1, 0x03, 0x00, 0x00, 0x00, 0xFE, 0x00, 0x00, 
  0x00, 0x80, 0x7F, 0x7C, 0xAF, 0xF6, 0xFF, 0xC1, 0xFF, 0xFF, 0xFF, 0x1F, 
  0xF8, 0xFF, 0xFF, 0xFF, 0x83, 0x01, 0x00, 0x00, 0x00, 0xFE, 0x01, 0x00, 
  0x00, 0xC0, 0x3F, 0xBC, 0xDF, 0xF7, 0xFF, 0xF0, 0xFF, 0xFF, 0xFF, 0x1F, 
  0xF8, 0xFF, 0xFF, 0xFF, 0x0F, 0x00, 0x00, 0x00, 0x00, 0xFC, 0x03, 0x00, 
  0x00, 0xC0, 0x1F, 0xBE, 0xF9, 0xFF, 0x3F, 0xF8, 0xFF, 0xFF, 0xFF, 0x1F, 
  0xF8, 0xFF, 0xFF, 0xFF, 0x1F, 0x00, 0x00, 0x00, 0x00, 0xF8, 0x03, 0x00, 
  0x00, 0xE0, 0x1F, 0xFF, 0xFB, 0xF7, 0x1F, 0xFC, 0xFF, 0xFF, 0xFF, 0x1F, 
  0xF8, 0xFF, 0xFF, 0xFF, 0x3F, 0x00, 0x00, 0x4A, 0x36, 0xF8, 0x07, 0x00, 
  0x00, 0xE0, 0x8F, 0x7F, 0xF3, 0xF7, 0x0F, 0xFF, 0xFF, 0xFF, 0xFF, 0x1F, 
  0xF8, 0xFF, 0xFF, 0xFF, 0xFF, 0x00, 0x00, 0xB6, 0x21, 0xF0, 0x07, 0x00, 
  0x00, 0xF0, 0x87, 0x7F, 0xCF, 0xF7, 0x87, 0xFF, 0xFF, 0xFF, 0xFF, 0x1F, 
  0xF8, 0xFF, 0xFF, 0xFF, 0xFF, 0x01, 0x00, 0x02, 0x20, 0xE0, 0x0F, 0x00, 
  0x00, 0xF0, 0xC7, 0xFF, 0x3E, 0xFB, 0xC3, 0xFF, 0xFF, 0xFF, 0xFF, 0x1F, 
  0xF8, 0xFF, 0xFF, 0xFF, 0xFF, 0x03, 0x00, 0x02, 0x20, 0xE0, 0x1F, 0x00, 
  0x00, 0xF8, 0xC3, 0xFF, 0x7F, 0xFD, 0xE1, 0xFF, 0xFF, 0xFF, 0xFF, 0x1F, 
  0xF8, 0xFF, 0xFF, 0xFF, 0xFF, 0x07, 0x00, 0x00, 0x00, 0xC0, 0x1F, 0x00, 
  0x00, 0xFC, 0xE3, 0xFF, 0xFD, 0xFD, 0xF0, 0xFF, 0xFF, 0xFF, 0xFF, 0x1F, 
  0xF8, 0xFF, 0xFF, 0xFF, 0xFF, 0x0F, 0x00, 0x5A, 0x15, 0xC0, 0x3F, 0x00, 
  0x00, 0xFC, 0xF1, 0xFF, 0xFB, 0xFE, 0xF8, 0xFF, 0xFF, 0xFF, 0xFF, 0x1F, 
  0xF8, 0xFF, 0xFF, 0xFF, 0xFF, 0x1F, 0x00, 0x03, 0x30, 0x80, 0x3F, 0x00, 
  0x00, 0xFE, 0xF0, 0xFF, 0x7B, 0x3F, 0xFC, 0xFF, 0xFF, 0xFF, 0xFF, 0x1F, 
  0xF8, 0xFF, 0xFF, 0xFF, 0xFF, 0x3F, 0x00, 0x62, 0x21, 0x00, 0x7F, 0x00, 
  0x00, 0xFE, 0xF8, 0xFF, 0xB7, 0x3F, 0xFE, 0xFF, 0xFF, 0xFF, 0xFF, 0x1F, 
  0xF8, 0xFF, 0xFF, 0xFF, 0xFF, 0x7F, 0x00, 0x23, 0x11, 0x00, 0x7F, 0x00, 
  0x00, 0xFF, 0xF8, 0xFF, 0xCF, 0x1F, 0xFE, 0xFF, 0xFF, 0xFF, 0xFF, 0x1F, 
  0xF8, 0xFF, 0xFF, 0xFF, 0xFF, 0xFF, 0x00, 0x22, 0x23, 0x00, 0xFE, 0x00, 
  0x00, 0x7F, 0xFC, 0xFF, 0xFF, 0x0F, 0xFF, 0xFF, 0xFF, 0xFF, 0xFF, 0x1F, 
  0xF8, 0xFF, 0xFF, 0xFF, 0xFF, 0xFF, 0x00, 0x42, 0x10, 0x00, 0xFE, 0x00, 
  0x00, 0x7F, 0xFC, 0xFF, 0xFF, 0x87, 0xFF, 0xFF, 0xFF, 0xFF, 0xFF, 0x1F, 
  0xF8, 0xFF, 0xFF, 0xFF, 0xFF, 0xFF, 0x01, 0x12, 0x12, 0x00, 0xFE, 0x00, 
  0x80, 0x3F, 0xFE, 0xFF, 0xFF, 0xC7, 0xFF, 0xFF, 0xFF, 0xFF, 0xFF, 0x1F, 
  0xF8, 0xFF, 0xFF, 0xFF, 0xFF, 0xFF, 0x03, 0x6E, 0x15, 0x00, 0xFC, 0x01, 
  0x80, 0x3F, 0xFE, 0xFF, 0xFF, 0xE3, 0xFF, 0xFF, 0xFF, 0xFF, 0xFF, 0x1F, 
  0xF8, 0xFF, 0xFF, 0xFF, 0xFF, 0xFF, 0x07, 0x00, 0x20, 0x00, 0xFC, 0x01, 
  0xC0, 0x1F, 0xFF, 0xFF, 0xFF, 0xE1, 0xFF, 0xFF, 0xFF, 0xFF, 0xFF, 0x1F, 
  0xF8, 0xFF, 0xFF, 0xFF, 0xFF, 0xFF, 0x07, 0x01, 0x10, 0x00, 0xF8, 0x03, 
  0xC0, 0x1F, 0xFF, 0xFF, 0xFF, 0xF1, 0xFF, 0xFF, 0xFF, 0xFF, 0xFF, 0x1F, 
  0xF8, 0xFF, 0xFF, 0xFF, 0xFF, 0xFF, 0x0F, 0x02, 0x10, 0x00, 0xF8, 0x03, 
  0xC0, 0x0F, 0xFF, 0xFF, 0xFF, 0xF8, 0xFF, 0xFF, 0xFF, 0xFF, 0xFF, 0x1F, 
  0xF8, 0xFF, 0xFF, 0xFF, 0xFF, 0xFF, 0x1F, 0x6C, 0x0B, 0x00, 0xF0, 0x03, 
  0xE0, 0x0F, 0xFC, 0xFF, 0xFF, 0xF8, 0xFF, 0xFF, 0xFF, 0xFF, 0xFF, 0x1F, 
  0xF8, 0xFF, 0xFF, 0xFF, 0xFF, 0xFF, 0x1F, 0x00, 0x00, 0x00, 0xF0, 0x07, 
  0xE0, 0x8F, 0xF0, 0xFF, 0x7F, 0xFC, 0xFF, 0xFF, 0xFF, 0xFF, 0xFF, 0x1F, 
  0xF8, 0xFF, 0xFF, 0xFF, 0xFF, 0xFF, 0x3F, 0x00, 0x00, 0x00, 0xF0, 0x07, 
  0xE0, 0xC7, 0x83, 0xFF, 0x3F, 0xFC, 0xFF, 0xFF, 0xFF, 0xFF, 0x1F, 0x00, 
  0x00, 0xF8, 0xFF, 0xFF, 0xFF, 0xFF, 0x3F, 0x00, 0x00, 0x00, 0xE0, 0x07, 
  0xF0, 0xC7, 0x1F, 0xFE, 0x3F, 0xFE, 0xFF, 0xFF, 0xFF, 0xFF, 0x0F, 0x00, 
  0x00, 0xF8, 0xFF, 0xFF, 0xFF, 0xFF, 0x7F, 0x00, 0x00, 0x00, 0xE0, 0x0F, 
  0xF0, 0xC7, 0x7F, 0xF8, 0x1F, 0xFE, 0xFF, 0xFF, 0xFF, 0xFF, 0xFF, 0x3F, 
  0xFF, 0xFF, 0xFF, 0xFF, 0xFF, 0xFF, 0x7F, 0x00, 0x00, 0x00, 0xE0, 0x0F, 
  0xF0, 0xE3, 0xFF, 0xE1, 0x1F, 0xFF, 0xFF, 0xFF, 0xFF, 0xFF, 0xFF, 0x3F, 
  0xFE, 0xFF, 0xFF, 0xFF, 0xFF, 0xFF, 0xFF, 0x00, 0x00, 0x00, 0xC0, 0x0F, 
  0xF8, 0xE3, 0xFF, 0x07, 0x1F, 0xFF, 0xFF, 0xFF, 0xFF, 0xFF, 0xFF, 0x9F, 
  0xFC, 0xFF, 0xFF, 0xFF, 0xFF, 0xFF, 0xFF, 0x00, 0x00, 0x00, 0xC0, 0x1F, 
  0xF8, 0xE3, 0xFF, 0x3F, 0x8E, 0xFF, 0xFF, 0xFF, 0xFF, 0xFF, 0xFF, 0xCF, 
  0xFD, 0xFF, 0xFF, 0xFF, 0xFF, 0xFF, 0xFF, 0x01, 0x00, 0x00, 0xC0, 0x1F, 
  0xF8, 0xE3, 0xFF, 0xFF, 0x80, 0xFF, 0xFF, 0xFF, 0xFF, 0xFF, 0xFF, 0xEF, 
  0xF9, 0xFF, 0xFF, 0xFF, 0xFF, 0xFF, 0xFF, 0x01, 0x00, 0x00, 0x80, 0x1F, 
  0xF8, 0xF1, 0xFF, 0xFF, 0xC3, 0xFF, 0xFF, 0xFF, 0xFF, 0xFF, 0xFF, 0xE7, 
  0xFB, 0xFF, 0xFF, 0xFF, 0xFF, 0xFF, 0xFF, 0x03, 0x00, 0x00, 0x8E, 0x1F, 
  0xFC, 0xF1, 0xFF, 0xFF, 0xC7, 0xFF, 0xFF, 0xFF, 0xFF, 0xFF, 0xFF, 0xF7, 
  0xF3, 0xFF, 0xFF, 0xFF, 0xFF, 0xFF, 0xFF, 0x03, 0x00, 0xC0, 0x8F, 0x3F, 
  0xF8, 0xF1, 0xFF, 0xFF, 0xC3, 0xFF, 0xFF, 0xFF, 0xFF, 0xFF, 0xFF, 0xF3, 
  0xE7, 0xFF, 0xFF, 0xFF, 0xFF, 0xFF, 0xFF, 0x03, 0x00, 0xF8, 0x8F, 0x3F, 
  0xFC, 0xF1, 0xFF, 0xFF, 0xE3, 0xFF, 0xFF, 0xFF, 0xFF, 0xFF, 0xFF, 0xFB, 
  0xEF, 0xFF, 0xFF, 0xFF, 0xFF, 0xFF, 0xFF, 0x07, 0x00, 0xFF, 0x9F, 0x3F, 
  0xFC, 0xF8, 0xFF, 0xFF, 0xE3, 0xFF, 0xFF, 0xFF, 0xFF, 0xFF, 0xFF, 0xF9, 
  0xCF, 0xFF, 0xFF, 0xFF, 0xFF, 0xFF, 0xFF, 0x07, 0xE0, 0xFF, 0x1F, 0x3F, 
  0xFC, 0xF8, 0xFF, 0xFF, 0xE3, 0xFF, 0xFF, 0xFF, 0xFF, 0xFF, 0xFF, 0xFD, 
  0xDF, 0xFF, 0xFF, 0xFF, 0xFF, 0xFF, 0xFF, 0x07, 0xFC, 0xFF, 0x1F, 0x3F, 
  0xFE, 0xF8, 0xFF, 0xFF, 0xF1, 0xFF, 0xFF, 0xFF, 0xFF, 0xFF, 0xFF, 0xFC, 
  0x9F, 0xFF, 0xFF, 0xFF, 0xFF, 0xFF, 0xFF, 0x8F, 0xFF, 0xFF, 0x1F, 0x7F, 
  0x7E, 0xFC, 0xFF, 0xFF, 0xF1, 0xFF, 0xFF, 0xFF, 0xFF, 0xFF, 0xFF, 0xFE, 
  0x3F, 0xFF, 0xFF, 0xFF, 0xFF, 0xFF, 0xFF, 0x8F, 0xFF, 0xFF, 0x1F, 0x7F, 
  0xFE, 0xF8, 0xFF, 0xFF, 0xF1, 0xFF, 0xFF, 0xFF, 0xFF, 0xFF, 0x7F, 0x7E, 
  0x7F, 0xFF, 0xFF, 0xFF, 0xFF, 0xFF, 0xFF, 0x8F, 0xFF, 0xFF, 0x3F, 0x7F, 
  0x7E, 0xFC, 0xFF, 0xFF, 0xF1, 0xFF, 0xFF, 0xFF, 0xFF, 0xFF, 0x3F, 0xFB, 
  0x6F, 0xFE, 0xFF, 0xFF, 0xFF, 0xFF, 0xFF, 0x8F, 0xFF, 0xFF, 0x3F, 0x7E, 
  0x7E, 0xFC, 0xFF, 0xFF, 0xF8, 0xFF, 0xFF, 0xFF, 0xFF, 0xFF, 0xBF, 0x17, 
  0xEC, 0xFE, 0xFF, 0xFF, 0xFF, 0xFF, 0xFF, 0x9F, 0xFF, 0xFF, 0x3F, 0x7E, 
  0x7E, 0xFC, 0xFF, 0xFF, 0xF8, 0xFF, 0xFF, 0xFF, 0xFF, 0xFF, 0x9F, 0x87, 
  0xE1, 0xFC, 0xFF, 0xFF, 0xFF, 0xFF, 0xFF, 0x1F, 0xFF, 0xFF, 0x3F, 0x7E, 
  0x7E, 0xFC, 0xFF, 0xFF, 0xF8, 0xFF, 0xFF, 0xFF, 0xFF, 0xFF, 0xDF, 0x43, 
  0xC0, 0xF9, 0xFF, 0xFF, 0xFF, 0xFF, 0xFF, 0x1F, 0xFF, 0xFF, 0x3F, 0x7E, 
  0x7F, 0xFC, 0xFF, 0xF7, 0xF8, 0xFF, 0xFF, 0xFF, 0xFF, 0xFF, 0xCF, 0x41, 
  0x00, 0xFB, 0xFF, 0xFF, 0xFF, 0xFF, 0xFF, 0x1F, 0xFF, 0xFF, 0x3F, 0xFE, 
  0x7F, 0xFE, 0xFF, 0xF9, 0xFC, 0xFF, 0xFF, 0xFF, 0xFF, 0xFF, 0xCF, 0x00, 
  0x02, 0xF3, 0xFF, 0xFF, 0xFF, 0xFF, 0xFF, 0x1F, 0xFF, 0xFF, 0x7F, 0xFE, 
  0x7F, 0xFC, 0xBF, 0xEF, 0xF8, 0xFF, 0xFF, 0xFF, 0xFF, 0xFF, 0x67, 0x40, 
  0x01, 0xF7, 0xFF, 0xFF, 0xFF, 0xFF, 0xFF, 0x3F, 0xFF, 0xFF, 0x7F, 0x7C, 
  0x3E, 0xFE, 0xCF, 0x71, 0xFC, 0xFF, 0xFF, 0xFF, 0xFF, 0xFF, 0xF7, 0x40, 
  0x01, 0xE7, 0xFF, 0xFF, 0xFF, 0xFF, 0xFF, 0x1F, 0xFE, 0xFF, 0x3F, 0xFE, 
  0x7F, 0xFC, 0x77, 0xEE, 0xFC, 0xFF, 0xFF, 0xFF, 0xFF, 0xFF, 0xF3, 0x83, 
  0xC0, 0xCF, 0xFF, 0xFF, 0xFF, 0xFF, 0xFF, 0x3F, 0xFE, 0xFF, 0x7F, 0x7E, 
  0x3F, 0xFE, 0x9C, 0x67, 0xFC, 0xFF, 0xFF, 0xFF, 0xFF, 0xFF, 0xFB, 0x0B, 
  0xE8, 0xDF, 0xFF, 0xFF, 0xFF, 0xFF, 0xFF, 0x3F, 0xFF, 0xFF, 0x3F, 0xFC, 
  0x3E, 0x4E, 0x73, 0xEC, 0xFC, 0xFF, 0xFF, 0xFF, 0xFF, 0xFF, 0xF9, 0x7B, 
  0xDF, 0x9F, 0xFF, 0xFF, 0xFF, 0xFF, 0xFF, 0x3F, 0xFE, 0xF7, 0x7F, 0xFC, 
  0x7F, 0x3E, 0x9D, 0x6F, 0xFC, 0xFF, 0xFF, 0xFF, 0xFF, 0xFF, 0xFC, 0xFF, 
  0xFF, 0x3F, 0xFF, 0xFF, 0xFF, 0xFF, 0xFF, 0x3F, 0x7E, 0xD8, 0x7F, 0xFC, 
  0x3F, 0x76, 0xE4, 0x78, 0xFC, 0xFF, 0xFF, 0xFF, 0xFF, 0xFF, 0xFE, 0x7F, 
  0xFF, 0x7F, 0xFF, 0xFF, 0xFF, 0xFF, 0xFF, 0x3F, 0xDE, 0xBF, 0x7F, 0xFC, 
  0x3F, 0xF8, 0x99, 0x7F, 0xFC, 0xFF, 0xFF, 0xFF, 0xFF, 0x7F, 0xFE, 0xFF, 
  0xFF, 0x7F, 0xFE, 0xFF, 0xFF, 0xFF, 0xFF, 0x3F, 0x9F, 0xBD, 0x7F, 0xFE, 
  0x3F, 0xF6, 0xF4, 0x7F, 0xFC, 0xFF, 0xFF, 0xFF, 0xFF, 0x7F, 0xFF, 0xFF, 
  0xFF, 0xFF, 0xFE, 0xFF, 0xFF, 0xFF, 0xFF, 0x3F, 0xDE, 0xFB, 0x7B, 0xFC, 
  0x3F, 0xF6, 0xFE, 0x7F, 0xFC, 0xFF, 0xFF, 0xFF, 0xFF, 0x3F, 0xFF, 0xFF, 
  0xFF, 0xFF, 0xFC, 0xFF, 0xBF, 0xFF, 0xFF, 0x3F, 0xFE, 0x77, 0x7A, 0xFC, 
  0x7E, 0x1E, 0xFE, 0x7F, 0xFC, 0xFF, 0xFF, 0xF9, 0xFF, 0xBF, 0xFF, 0xFF, 
  0xFF, 0xFF, 0xF9, 0xFF, 0x9F, 0xFF, 0xFF, 0x3F, 0xFF, 0xE7, 0x77, 0xFE, 
  0x3F, 0xE6, 0xFF, 0xFF, 0xFC, 0xFF, 0xFF, 0xFB, 0xFF, 0x9F, 0xFF, 0xFF, 
  0xFF, 0xFF, 0xFB, 0xFF, 0xCF, 0xFF, 0xFF, 0x3F, 0xFE, 0xFF, 0x7B, 0xFC, 
  0x3F, 0xFE, 0xFF, 0x7F, 0xFC, 0xFF, 0xFF, 0xF3, 0xFF, 0xDF, 0xFF, 0xFF, 
  0xFF, 0xFF, 0xF3, 0xFF, 0xCF, 0xFF, 0xFF, 0x3F, 0xFE, 0xEF, 0x7F, 0x7E, 
  0x7E, 0xFE, 0xFF, 0xFF, 0xF8, 0xFF, 0xFF, 0xF3, 0xFF, 0x0F, 0x00, 0x00, 
  0x00, 0x20, 0xE4, 0xFF, 0xCF, 0xFF, 0xFF, 0x3F, 0xFF, 0x77, 0x76, 0xFC, 
  0x3F, 0xFC, 0xFF, 0xFF, 0xFC, 0xFF, 0xFF, 0xFB, 0xFF, 0xEF, 0xFF, 0xFF, 
  0xFF, 0xF7, 0xE7, 0xFF, 0xCF, 0xFF, 0xFF, 0x1F, 0x06, 0xB9, 0x79, 0xFC, 
  0x7F, 0xFE, 0xFF, 0x7F, 0xF8, 0xFF, 0xE3, 0xF0, 0xFF, 0xE7, 0xF7, 0xFF, 
  0xFF, 0xFF, 0xCF, 0xFF, 0x0F, 0x86, 0xFF, 0x3F, 0xFF, 0xBF, 0x3B, 0xFE, 
  0x7E, 0xFE, 0xFF, 0xFF, 0xF8, 0xFF, 0x03, 0xF0, 0xFF, 0xF3, 0xF7, 0xFF, 
  0xFF, 0xF7, 0xDF, 0xFF, 0x0F, 0xC0, 0xFF, 0x1F, 0xCF, 0xDF, 0x3F, 0x7E, 
  0x7E, 0xFC, 0xFF, 0xFF, 0xF8, 0xFF, 0xE7, 0xE8, 0xFF, 0xF0, 0xF7, 0xF9, 
  0xDF, 0xFF, 0x1F, 0xFE, 0x93, 0xFF, 0xFF, 0x1F, 0xBF, 0xF6, 0x7F, 0x7E, 
  0x7E, 0xFC, 0xFF, 0xFF, 0xF8, 0xFF, 0xFF, 0x58, 0x04, 0xF8, 0xFF, 0xE3, 
  0xC7, 0xF7, 0x3F, 0x01, 0x1E, 0xFF, 0xFF, 0x1F, 0xFF, 0xFE, 0x3F, 0x7E, 
  0x7E, 0xFC, 0xFF, 0xFF, 0xF8, 0xFF, 0x1F, 0xFC, 0xFB, 0xF9, 0xF3, 0x41, 
  0xC3, 0xE6, 0x2F, 0xFF, 0x7F, 0xF8, 0xFF, 0x1F, 0xFF, 0xFF, 0x3F, 0x7E, 
  0x7E, 0xFC, 0xFF, 0xFF, 0xF8, 0xFF, 0x1F, 0xFD, 0xFF, 0x28, 0x45, 0x41, 
  0x40, 0x25, 0x52, 0xFE, 0xBF, 0xF9, 0xFF, 0x1F, 0xFF, 0xFF, 0x3F, 0x7E, 
  0x7E, 0xFC, 0xFF, 0xFF, 0xF1, 0xFF, 0xFF, 0xFD, 0xFF, 0xFE, 0xFF, 0xE1, 
  0xE3, 0x7F, 0x7F, 0xFE, 0x3F, 0xFF, 0xFF, 0x8F, 0xFF, 0xFF, 0x3F, 0x7E, 
  0x7E, 0xFC, 0xFF, 0xFF, 0xF1, 0xFF, 0xFF, 0xFE, 0x7F, 0x7E, 0xFF, 0x79, 
  0xCF, 0xFF, 0xFF, 0xFC, 0x7F, 0xFF, 0xFF, 0x8F, 0xFF, 0xFF, 0x3F, 0x7E, 
  0xFC, 0xF8, 0xFF, 0xFF, 0xF1, 0xFF, 0xFF, 0xFF, 0x3F, 0x7F, 0xFF, 0x7F, 
  0xFF, 0x7F, 0xFF, 0xFD, 0xFF, 0xFF, 0xFF, 0x8F, 0xFF, 0xFF, 0x1F, 0x3F, 
  0xFC, 0xF8, 0xFF, 0xFF, 0xF1, 0xFF, 0xFF, 0xFF, 0x3F, 0x7F, 0xFF, 0x7F, 
  0xFF, 0xFF, 0xFF, 0xFB, 0xFF, 0xFF, 0xFF, 0x8F, 0xFF, 0xFF, 0x1F, 0x3F, 
  0xFC, 0xF8, 0xFF, 0x3F, 0xE0, 0xFF, 0xFF, 0xFF, 0x9F, 0x7F, 0xFF, 0x7F, 
  0xFF, 0x7F, 0xFF, 0xF3, 0xFF, 0xFF, 0xFF, 0xC7, 0xFF, 0xFF, 0x1F, 0x3F, 
  0xFC, 0xF8, 0xFF, 0x03, 0xE2, 0xFF, 0xFF, 0xFF, 0x9F, 0x7F, 0xFF, 0x7F, 
  0xFF, 0x7F, 0xFF, 0xF7, 0xFF, 0xFF, 0xFF, 0xC7, 0xFF, 0xFF, 0x1F, 0x3F, 
  0xFC, 0xF9, 0xFF, 0xE0, 0xE3, 0xFF, 0xFF, 0xFF, 0xCF, 0xEF, 0xDF, 0x36, 
  0xEA, 0xFB, 0xEE, 0xE5, 0xFF, 0xFF, 0xFF, 0xC7, 0xFF, 0xFF, 0x1F, 0x3F, 
  0xF8, 0xF0, 0x07, 0xFC, 0xE7, 0xFF, 0xFF, 0xFF, 0x8F, 0x55, 0x12, 0x8A, 
  0x24, 0x24, 0xA9, 0xE5, 0xFF, 0xFF, 0xFF, 0xE7, 0xFF, 0xFF, 0x8F, 0x1F, 
  0xF8, 0xF1, 0xA1, 0xFF, 0xC7, 0xFF, 0xFF, 0xFF, 0xEF, 0xFF, 0xFF, 0xFF, 
  0xFF, 0xFE, 0xFF, 0xCF, 0xFF, 0xFF, 0xFF, 0xE3, 0xFF, 0xFF, 0x8F, 0x1F, 
  0xF8, 0x21, 0xF8, 0xFF, 0xC7, 0xFF, 0xFF, 0xFF, 0xF7, 0xFF, 0x7F, 0xFF, 
  0xFF, 0xFE, 0xFF, 0x9F, 0xFF, 0xFF, 0xFF, 0xE3, 0xFF, 0xFF, 0x8F, 0x1F, 
  0xF0, 0x83, 0xFF, 0xFF, 0x8F, 0xFF, 0xFF, 0xFF, 0xF3, 0xFF, 0x7F, 0xFF, 
  0xFF, 0xFF, 0xFF, 0xBF, 0xFF, 0xFF, 0xFF, 0x81, 0xFF, 0xFF, 0x8F, 0x1F, 
  0xF0, 0xE3, 0xFF, 0xFF, 0x8F, 0xFF, 0xFF, 0xFF, 0xFB, 0xFF, 0xFF, 0xFF, 
  0xFF, 0xFE, 0xFF, 0x7F, 0xFF, 0xFF, 0xFF, 0x11, 0xFC, 0xFF, 0xC7, 0x0F, 
  0xF0, 0xE3, 0xFF, 0xFF, 0x8F, 0xFF, 0xFF, 0xFF, 0x01, 0x04, 0x00, 0x00, 
  0x04, 0x00, 0x00, 0x04, 0xFE, 0xFF, 0xFF, 0x71, 0xE0, 0xFF, 0xC7, 0x0F, 
  0xF0, 0xE3, 0xFF, 0xFF, 0x1F, 0xFF, 0xFF, 0xFF, 0x9B, 0x51, 0x42, 0x9A, 
  0x51, 0x42, 0x99, 0x81, 0xFF, 0xFF, 0xFF, 0xF8, 0x03, 0xFF, 0xC7, 0x0F, 
  0xE0, 0xC7, 0xFF, 0xFF, 0x1F, 0xFF, 0xFF, 0xFF, 0xFF, 0xFF, 0xF3, 0xFF, 
  0xFF, 0xEF, 0xFF, 0xFF, 0xFF, 0xFF, 0xFF, 0xF8, 0x3F, 0xF8, 0xE3, 0x07, 
  0xE0, 0xC7, 0xFF, 0xFF, 0x3F, 0xFE, 0xFF, 0xFF, 0xFF, 0xFF, 0xF3, 0xFF, 
  0xFF, 0xE7, 0xFF, 0xFF, 0xFF, 0xFF, 0x7F, 0xFC, 0xFF, 0xC0, 0xE3, 0x07, 
  0xE0, 0xC7, 0xFF, 0xFF, 0x3F, 0xFC, 0xFF, 0xFF, 0xFF, 0xFF, 0xE7, 0xFF, 
  0xFF, 0xE7, 0xFF, 0xFF, 0xFF, 0xFF, 0x3F, 0xFC, 0xFF, 0x0F, 0xE0, 0x07, 
  0xC0, 0x8F, 0xFF, 0xFF, 0x7F, 0xFC, 0xFF, 0xFF, 0xFF, 0xFF, 0xF3, 0xFF, 
  0xFF, 0xEF, 0xFF, 0xFF, 0xFF, 0xFF, 0x3F, 0xFE, 0xFF, 0x7F, 0xF0, 0x03, 
  0xC0, 0x8F, 0xFF, 0xFF, 0x7F, 0xF8, 0xFF, 0xFF, 0xFF, 0xFF, 0xF3, 0xFF, 
  0xFF, 0xC7, 0xFF, 0xFF, 0xFF, 0xFF, 0x3F, 0xFE, 0xFF, 0xFF, 0xF1, 0x03, 
  0xC0, 0x8F, 0xFF, 0x5F, 0xFE, 0xF8, 0xFF, 0xFF, 0xFF, 0xFF, 0xF3, 0xFF, 
  0xFF, 0xCF, 0xFF, 0xFF, 0xFF, 0xFF, 0x1F, 0xFF, 0xFF, 0xFF, 0xF1, 0x03, 
  0x80, 0x1F, 0xFF, 0x8F, 0xFE, 0xF1, 0xFF, 0xFF, 0xFF, 0xFF, 0xF7, 0xFF, 
  0xFF, 0xE7, 0xFF, 0xFF, 0xFF, 0xFF, 0x0F, 0xFF, 0xFF, 0xFF, 0xF8, 0x01, 
  0x80, 0x1F, 0xFF, 0x9B, 0xFF, 0xE1, 0xFF, 0xFF, 0xFF, 0xFF, 0xF3, 0xFF, 
  0xFF, 0xC7, 0xFF, 0xFF, 0xFF, 0xFF, 0x87, 0xFF, 0xFF, 0xFF, 0xF8, 0x01, 
  0x00, 0x3F, 0xFE, 0xFB, 0xFD, 0xE3, 0xFF, 0xFF, 0xFF, 0xFF, 0xF3, 0xFF, 
  0xFF, 0xEF, 0xFF, 0xFF, 0xFF, 0xFF, 0xC7, 0xFF, 0xFF, 0x7F, 0xFC, 0x00, 
  0x00, 0x3F, 0xFE, 0xF7, 0xFF, 0xC3, 0xFF, 0xFF, 0xFF, 0xFF, 0xF7, 0xFF, 
  0xFF, 0xCF, 0xFF, 0xFF, 0xFF, 0xFF, 0xC3, 0xFF, 0xFF, 0x7F, 0xFC, 0x00, 
  0x00, 0x3F, 0xFC, 0xEF, 0xFD, 0x87, 0xFF, 0xFF, 0xFF, 0xFF, 0xE3, 0xFF, 
  0xFF, 0xE7, 0xFF, 0xFF, 0xFF, 0xFF, 0xE3, 0xFF, 0xFF, 0x3F, 0xFC, 0x00, 
  0x00, 0x7E, 0xFC, 0xEF, 0xFD, 0x8F, 0xFF, 0xFF, 0xFF, 0xFF, 0xF3, 0xFF, 
  0xFF, 0xEF, 0xFF, 0xFF, 0xFF, 0xFF, 0xF0, 0xFF, 0xFF, 0x3F, 0x7E, 0x00, 
  0x00, 0xFE, 0xF8, 0xFF, 0xFD, 0x1F, 0xFF, 0xFF, 0xFF, 0xFF, 0xF3, 0xFF, 
  0xFF, 0xE7, 0xFF, 0xFF, 0xFF, 0xFF, 0xF8, 0xFF, 0xFF, 0x1F, 0x7F, 0x00, 
  0x00, 0xFC, 0xF8, 0xEF, 0xFD, 0x1F, 0xFE, 0xFF, 0xFF, 0xFF, 0xE7, 0xFF, 
  0xFF, 0xEF, 0xFF, 0xFF, 0xFF, 0x7F, 0xF8, 0xFF, 0xFF, 0x1F, 0x3F, 0x00, 
  0x00, 0xF8, 0xF1, 0xEF, 0x13, 0x3E, 0xFC, 0xFF, 0xFF, 0xFF, 0xF7, 0xFF, 
  0xFF, 0xE7, 0xFF, 0xFF, 0xFF, 0x3F, 0xFC, 0xF9, 0xFF, 0x8F, 0x3F, 0x00, 
  0x00, 0xF8, 0xF1, 0xFF, 0xFF, 0x7B, 0xF8, 0xFF, 0xFF, 0xFF, 0xE7, 0xFF, 
  0xFF, 0xE7, 0xFF, 0xFF, 0xFF, 0x1F, 0xFE, 0xF5, 0xFF, 0x8F, 0x1F, 0x00, 
  0x00, 0xF8, 0xE1, 0xEF, 0xFF, 0xFB, 0xF0, 0xFF, 0xFF, 0xFF, 0xE7, 0xFF, 
  0xFF, 0xE7, 0xFF, 0xFF, 0xFF, 0x0F, 0xFF, 0xF6, 0xFF, 0x87, 0x1F, 0x00, 
  0x00, 0xF0, 0xE3, 0xFF, 0xFF, 0xF7, 0xE1, 0xFF, 0xFF, 0xFF, 0xCF, 0xFF, 
  0xFF, 0xF3, 0xFF, 0xFF, 0xFF, 0x87, 0x7F, 0xEF, 0xFF, 0xC7, 0x0F, 0x00, 
  0x00, 0xE0, 0xC7, 0xEF, 0xFF, 0xF9, 0xC3, 0xFF, 0xFF, 0xFF, 0x9F, 0xFF, 
  0xFF, 0xF9, 0xFF, 0xFF, 0xFF, 0xC3, 0x7F, 0xEF, 0xFF, 0xE3, 0x0F, 0x00, 
  0x00, 0xE0, 0x87, 0xEF, 0xFF, 0xF1, 0x87, 0xFF, 0xFF, 0xFF, 0x3F, 0xFE, 
  0x7F, 0xFC, 0xFF, 0xFF, 0xFF, 0xE1, 0xBF, 0x96, 0xFF, 0xE1, 0x07, 0x00, 
  0x00, 0xC0, 0x8F, 0xEF, 0xFF, 0xFF, 0x0F, 0xFF, 0xFF, 0xFF, 0xFF, 0xFC, 
  0x3F, 0xFF, 0xFF, 0xFF, 0xFF, 0xF0, 0xFF, 0xCE, 0xFF, 0xF1, 0x03, 0x00, 
  0x00, 0xC0, 0x1F, 0xEF, 0xFF, 0xFD, 0x1F, 0xFE, 0xFF, 0xFF, 0xFF, 0xF3, 
  0x8F, 0xFF, 0xFF, 0xFF, 0x7F, 0xF8, 0x7F, 0xEF, 0xFF, 0xF0, 0x03, 0x00, 
  0x00, 0x80, 0x1F, 0xEE, 0xEA, 0xFD, 0x3F, 0xF8, 0xFF, 0xFF, 0xFF, 0xE3, 
  0xE7, 0xFF, 0xFF, 0xFF, 0x1F, 0xFC, 0xBF, 0xDF, 0x7F, 0xF8, 0x01, 0x00, 
  0x00, 0x00, 0x3F, 0xBE, 0x57, 0xFD, 0x7F, 0xF0, 0xFF, 0xFF, 0xFF, 0xF7, 
  0xEF, 0xFF, 0xFF, 0xFF, 0x0F, 0xFE, 0xDF, 0xBF, 0x7F, 0xFC, 0x00, 0x00, 
  0x00, 0x00, 0x3F, 0x9C, 0x7E, 0xFE, 0x7F, 0xE0, 0xFF, 0xFF, 0xFF, 0xE7, 
  0xE7, 0xFF, 0xFF, 0xFF, 0x87, 0xFF, 0x5F, 0x66, 0x3F, 0xFE, 0x00, 0x00, 
  0x00, 0x00, 0x7E, 0x98, 0xBF, 0xFF, 0x3F, 0x83, 0xFF, 0xFF, 0xFF, 0xF7, 
  0xEF, 0xFF, 0xFF, 0xFF, 0xC1, 0xFF, 0xFF, 0xDE, 0x1F, 0x7E, 0x00, 0x00, 
  0x00, 0x00, 0xFC, 0xF0, 0xFF, 0xFF, 0x9F, 0x07, 0xFE, 0xFF, 0xFF, 0xF3, 
  0xEF, 0xFF, 0xFF, 0x7F, 0xE0, 0xFF, 0xFF, 0xF6, 0x0F, 0x3F, 0x00, 0x00, 
  0x00, 0x00, 0xFC, 0xF1, 0xFF, 0xFF, 0xCF, 0x1F, 0xF8, 0xFF, 0xFF, 0xF7, 
  0xCF, 0xFF, 0xFF, 0x3F, 0xE0, 0xFF, 0xFF, 0xF6, 0x8F, 0x3F, 0x00, 0x00, 
  0x00, 0x00, 0xF8, 0xE1, 0xFF, 0xFF, 0xCF, 0x3F, 0xF0, 0xFF, 0xFF, 0xFB, 
  0xEF, 0xFF, 0xFF, 0x07, 0xE4, 0xFF, 0xFF, 0xFB, 0x87, 0x1F, 0x00, 0x00, 
  0x00, 0x00, 0xF0, 0xC3, 0xFF, 0xFF, 0xE7, 0xFF, 0xC0, 0xFF, 0xFF, 0xFF, 
  0xDF, 0xFF, 0xFF, 0x01, 0xCF, 0xFF, 0xFF, 0xFF, 0xC3, 0x0F, 0x00, 0x00, 
  0x00, 0x00, 0xE0, 0x87, 0xFF, 0xFF, 0xF3, 0xFF, 0x03, 0xFE, 0xFF, 0xFF, 
  0xFF, 0xFF, 0x7F, 0xC0, 0x9F, 0xFF, 0xFF, 0xFF, 0xE1, 0x07, 0x00, 0x00, 
  0x00, 0x00, 0xE0, 0x0F, 0xFF, 0xFF, 0xF9, 0xFF, 0x0F, 0xF8, 0xFF, 0xFF, 
  0xFF, 0xFF, 0x0F, 0xF0, 0x9F, 0xFF, 0xFF, 0xFF, 0xF0, 0x07, 0x00, 0x00, 
  0x00, 0x00, 0xC0, 0x1F, 0xFE, 0xFF, 0xF9, 0xFF, 0x3F, 0x80, 0xFF, 0xFF, 
  0xFF, 0xFF, 0x01, 0xFC, 0x3F, 0xFF, 0xFF, 0x7F, 0xF8, 0x03, 0x00, 0x00, 
  0x00, 0x00, 0x80, 0x3F, 0xFE, 0xFF, 0xFC, 0xFF, 0xFF, 0x01, 0xF8, 0xFF, 
  0xFF, 0x1F, 0x80, 0xFF, 0x7F, 0xFF, 0xFF, 0x3F, 0xFC, 0x01, 0x00, 0x00, 
  0x00, 0x00, 0x00, 0x7F, 0xF8, 0x7F, 0xFE, 0xFF, 0xDF, 0x07, 0x00, 0xFE, 
  0x7F, 0x01, 0xE0, 0xFF, 0x7F, 0xFE, 0xFF, 0x1F, 0xFE, 0x00, 0x00, 0x00, 
  0x00, 0x00, 0x00, 0xFE, 0xF0, 0x3F, 0xFF, 0xFF, 0x2F, 0x7F, 0x00, 0x00, 
  0x00, 0x00, 0xFE, 0xFF, 0xFF, 0xFC, 0xFF, 0x1F, 0x7F, 0x00, 0x00, 0x00, 
  0x00, 0x00, 0x00, 0xFC, 0xE1, 0x1F, 0xFF, 0xFF, 0xA3, 0xFC, 0x0F, 0x00, 
  0x00, 0xE0, 0xFF, 0xFF, 0xFF, 0xFC, 0xFF, 0x87, 0x3F, 0x00, 0x00, 0x00, 
  0x00, 0x00, 0x00, 0xF8, 0xC1, 0x9F, 0xFF, 0xFF, 0xF7, 0xF8, 0xFF, 0x05, 
  0x90, 0xFF, 0xFF, 0xFF, 0xFF, 0xF9, 0xFF, 0xC3, 0x1F, 0x00, 0x00, 0x00, 
  0x00, 0x00, 0x00, 0xF8, 0x87, 0xCF, 0xFF, 0xFF, 0xB1, 0xFE, 0xFF, 0x3F, 
  0xFF, 0xFF, 0xF7, 0xFF, 0xFF, 0xF3, 0xFF, 0xC1, 0x1F, 0x00, 0x00, 0x00, 
  0x00, 0x00, 0x00, 0xE0, 0x0F, 0xE7, 0xFF, 0xFF, 0xEC, 0xFA, 0xFF, 0x3F, 
  0xFF, 0xFF, 0xE7, 0xFF, 0xFF, 0xF3, 0xFF, 0xF0, 0x07, 0x00, 0x00, 0x00, 
  0x00, 0x00, 0x00, 0xC0, 0x1F, 0xF2, 0xFF, 0xFF, 0x91, 0xFA, 0xFF, 0xBF, 
  0xFF, 0xFF, 0xEF, 0xFF, 0xFF, 0xE7, 0x7F, 0xF8, 0x03, 0x00, 0x00, 0x00, 
  0x00, 0x00, 0x00, 0x80, 0x3F, 0xF0, 0xFF, 0xFF, 0xE4, 0xFA, 0xFF, 0xBF, 
  0xFF, 0xFF, 0xDB, 0xFF, 0xFF, 0xCF, 0x3F, 0xFC, 0x01, 0x00, 0x00, 0x00, 
  0x00, 0x00, 0x00, 0x00, 0x7F, 0xF0, 0xFF, 0x7F, 0xFF, 0xFB, 0xFF, 0x9F, 
  0xFF, 0xFF, 0xFB, 0xFF, 0xFF, 0xCF, 0x0F, 0xFE, 0x00, 0x00, 0x00, 0x00, 
  0x00, 0x00, 0x00, 0x00, 0xFE, 0xE0, 0xFF, 0xFF, 0xFD, 0xFB, 0xFF, 0x9F, 
  0xFF, 0x5F, 0x99, 0xF5, 0xFF, 0x9F, 0x87, 0x7F, 0x00, 0x00, 0x00, 0x00, 
  0x00, 0x00, 0x00, 0x00, 0xFC, 0x83, 0xFF, 0x7F, 0xFF, 0xEB, 0xFF, 0x9F, 
  0xFF, 0xC7, 0x2D, 0xE7, 0xFF, 0xBF, 0xC1, 0x3F, 0x00, 0x00, 0x00, 0x00, 
  0x00, 0x00, 0x00, 0x00, 0xF0, 0x07, 0xFF, 0xFF, 0xFE, 0xEB, 0xFF, 0x9F, 
  0xFF, 0xBF, 0xB9, 0xFB, 0xFF, 0x3F, 0xE0, 0x1F, 0x00, 0x00, 0x00, 0x00, 
  0x00, 0x00, 0x00, 0x00, 0xE0, 0x0F, 0xFC, 0x7F, 0xFF, 0xFB, 0xFF, 0x9F, 
  0xFF, 0x7F, 0x6C, 0xFD, 0xFF, 0x3F, 0xF8, 0x07, 0x00, 0x00, 0x00, 0x00, 
  0x00, 0x00, 0x00, 0x00, 0xC0, 0x3F, 0xF8, 0xFF, 0xFF, 0xEF, 0xFF, 0x9F, 
  0xFF, 0xFF, 0x7D, 0xFE, 0xFF, 0x1F, 0xFC, 0x03, 0x00, 0x00, 0x00, 0x00, 
  0x00, 0x00, 0x00, 0x00, 0x80, 0x7F, 0xE0, 0xFF, 0xFE, 0xEF, 0xFF, 0xDF, 
  0xFF, 0xFF, 0xBA, 0xFE, 0xFF, 0x07, 0xFE, 0x01, 0x00, 0x00, 0x00, 0x00, 
  0x00, 0x00, 0x00, 0x00, 0x00, 0xFE, 0x81, 0xFF, 0xFF, 0xEF, 0xFF, 0xDF, 
  0xFF, 0x7F, 0xCF, 0xFD, 0xFF, 0x81, 0x7F, 0x00, 0x00, 0x00, 0x00, 0x00, 
  0x00, 0x00, 0x00, 0x00, 0x00, 0xFC, 0x07, 0xFE, 0xFE, 0xF7, 0xFF, 0xCF, 
  0xFF, 0xFF, 0xA7, 0xFD, 0x7F, 0xE0, 0x3F, 0x00, 0x00, 0x00, 0x00, 0x00, 
  0x00, 0x00, 0x00, 0x00, 0x00, 0xF0, 0x1F, 0xF8, 0xFD, 0xF7, 0xFF, 0xDF, 
  0xFF, 0x7F, 0x79, 0xFA, 0x1F, 0xF8, 0x0F, 0x00, 0x00, 0x00, 0x00, 0x00, 
  0x00, 0x00, 0x00, 0x00, 0x00, 0xE0, 0x3F, 0xE0, 0xFB, 0xFB, 0xFF, 0xCF, 
  0xFF, 0xBF, 0xFD, 0xFB, 0x07, 0xFC, 0x07, 0x00, 0x00, 0x00, 0x00, 0x00, 
  0x00, 0x00, 0x00, 0x00, 0x00, 0x80, 0xFF, 0x80, 0xD7, 0xFC, 0xFF, 0xCF, 
  0xFF, 0x3F, 0xFF, 0xFF, 0x01, 0xFF, 0x01, 0x00, 0x00, 0x00, 0x00, 0x00, 
  0x00, 0x00, 0x00, 0x00, 0x00, 0x00, 0xFE, 0x07, 0xBC, 0xFF, 0xFF, 0xCF, 
  0xFF, 0xFF, 0xFF, 0x3F, 0xC0, 0x7F, 0x00, 0x00, 0x00, 0x00, 0x00, 0x00, 
  0x00, 0x00, 0x00, 0x00, 0x00, 0x00, 0xF8, 0x1F, 0xE0, 0xFF, 0xFF, 0xEF, 
  0xFF, 0xFF, 0xFF, 0x0B, 0xF8, 0x1F, 0x00, 0x00, 0x00, 0x00, 0x00, 0x00, 
  0x00, 0x00, 0x00, 0x00, 0x00, 0x00, 0xE0, 0x7F, 0x00, 0xFF, 0xFF, 0xCF, 
  0xFF, 0xFF, 0xFF, 0x00, 0xFE, 0x0F, 0x00, 0x00, 0x00, 0x00, 0x00, 0x00, 
  0x00, 0x00, 0x00, 0x00, 0x00, 0x00, 0x80, 0xFF, 0x03, 0xF0, 0xFF, 0xEF, 
  0xFF, 0xFF, 0x1F, 0xC0, 0xFF, 0x01, 0x00, 0x00, 0x00, 0x00, 0x00, 0x00, 
  0x00, 0x00, 0x00, 0x00, 0x00, 0x00, 0x00, 0xFE, 0x1F, 0x00, 0xFD, 0xE7, 
  0xFF, 0x7F, 0x00, 0xF8, 0x7F, 0x00, 0x00, 0x00, 0x00, 0x00, 0x00, 0x00, 
  0x00, 0x00, 0x00, 0x00, 0x00, 0x00, 0x00, 0xF8, 0xFF, 0x00, 0x80, 0xE6, 
  0xBF, 0x01, 0x00, 0xFF, 0x1F, 0x00, 0x00, 0x00, 0x00, 0x00, 0x00, 0x00, 
  0x00, 0x00, 0x00, 0x00, 0x00, 0x00, 0x00, 0xC0, 0xFF, 0x0F, 0x00, 0x00, 
  0x00, 0x00, 0xF0, 0xFF, 0x07, 0x00, 0x00, 0x00, 0x00, 0x00, 0x00, 0x00, 
  0x00, 0x00, 0x00, 0x00, 0x00, 0x00, 0x00, 0x00, 0xFE, 0xFF, 0x01, 0x00, 
  0x00, 0xC0, 0xFF, 0xFF, 0x00, 0x00, 0x00, 0x00, 0x00, 0x00, 0x00, 0x00, 
  0x00, 0x00, 0x00, 0x00, 0x00, 0x00, 0x00, 0x00, 0xF8, 0xFF, 0xFF, 0x0A, 
  0xA2, 0xFE, 0xFF, 0x1F, 0x00, 0x00, 0x00, 0x00, 0x00, 0x00, 0x00, 0x00, 
  0x00, 0x00, 0x00, 0x00, 0x00, 0x00, 0x00, 0x00, 0x80, 0xFF, 0xFF, 0xFF, 
  0xFF, 0xFF, 0xFF, 0x01, 0x00, 0x00, 0x00, 0x00, 0x00, 0x00, 0x00, 0x00, 
  0x00, 0x00, 0x00, 0x00, 0x00, 0x00, 0x00, 0x00, 0x00, 0xF8, 0xFF, 0xFF, 
  0xFF, 0xFF, 0x1F, 0x00, 0x00, 0x00, 0x00, 0x00, 0x00, 0x00, 0x00, 0x00, 
  0x00, 0x00, 0x00, 0x00, 0x00, 0x00, 0x00, 0x00, 0x00, 0x00, 0xFE, 0xFF, 
  0xFF, 0x7F, 0x00, 0x00, 0x00, 0x00, 0x00, 0x00, 0x00, 0x00, 0x00, 0x00, 
  0x00, 0x00, 0x00, 0x00, 0x00, 0x00, 0x00, 0x00, 0x00, 0x00, 0x80, 0xF6, 
  0x6F, 0x01, 0x00, 0x00, 0x00, 0x00, 0x00, 0x00, 0x00, 0x00, 0x00, 0x00, 
  0x00, 0x00, 0x00, 0x00, 0x00, 0x00, 0x00, 0x00, 0x00, 0x00, 0x00, 0x00, 
  0x00, 0x00, 0x00, 0x00, 0x00, 0x00, 0x00, 0x00, 0x00, 0x00, 0x00, 0x00, 
  0x00, 0x00, 0x00, 0x00, 0x00, 0x00, 0x00, 0x00, 0x00, 0x00, 0x00, 0x00, 
  0x00, 0x00, 0x00, 0x00, 0x00, 0x00, 0x00, 0x00, 0x00, 0x00, 0x00, 0x00, 
  };
